<?xml version="1.0" encoding="utf-8"?>
<!-- Svg Vector Icons : http://www.onlinewebfonts.com/icon -->
<!DOCTYPE svg PUBLIC "-//W3C//DTD SVG 1.1//EN" "http://www.w3.org/Graphics/SVG/1.1/DTD/svg11.dtd">
<svg version="1.1" xmlns="http://www.w3.org/2000/svg" xmlns:xlink="http://www.w3.org/1999/xlink" x="0px" y="0px" viewBox="0 0 1000 1000" enable-background="new 0 0 1000 1000" xml:space="preserve">
<metadata> Svg Vector Icons : http://www.onlinewebfonts.com/icon </metadata>
<g><path d="M462.4,23.3L172.6,312.1l0,0L124,360.6l-54.5,54.5c-8.9,8.9-13.8,20.7-13.8,33.3c0,12.7,4.9,24.6,13.9,33.6c17.1,17.1,43.8,18.7,62.6,4l83.9-83.6l0,0l235.8-235v775.6c0,26,21.3,47.1,47.4,47.1s47.4-21.1,47.4-47.1V167.3l214.1,213.3l13.3,13.5l99.9,99.6c19.5,9.8,42.1,6.8,56.8-7.9c8.8-8.8,13.6-20.6,13.6-33.4c0-14.1-5.7-27.5-15.9-37.8l-26.1-26.2l-72-71.7L817,303.2L536.1,23.3c-9.3-9.2-22-13.9-35.9-13.3l-0.9,0l-0.9,0C484.4,9.4,471.7,14.1,462.4,23.3z"/></g>
</svg>